<?xml version="1.0" standalone="no"?>
<!DOCTYPE svg PUBLIC "-//W3C//DTD SVG 20010904//EN"
 "http://www.w3.org/TR/2001/REC-SVG-20010904/DTD/svg10.dtd">
<svg version="1.0" xmlns="http://www.w3.org/2000/svg"
 width="819.000000pt" height="460.000000pt" viewBox="0 0 819.000000 460.000000"
 preserveAspectRatio="xMidYMid meet">

<g transform="translate(0.000000,460.000000) scale(0.100000,-0.100000)"
fill="#000000" stroke="none">
<path d="M2241 3399 c-68 -20 -155 -91 -206 -167 -13 -20 -64 -111 -114 -202
-80 -147 -87 -165 -69 -168 34 -6 46 5 84 80 l37 73 29 -65 c50 -112 69 -120
155 -68 56 34 74 59 23 33 -16 -8 -35 -15 -43 -15 -28 0 -95 99 -82 120 3 6
16 10 28 10 12 0 47 13 77 28 61 31 103 82 98 122 -7 57 -111 26 -205 -62
l-56 -53 28 50 c139 243 166 271 247 261 45 -6 88 7 88 26 0 11 -78 8 -119 -3z
m-41 -231 c0 -51 -90 -122 -170 -134 l-45 -7 45 48 c74 78 170 130 170 93z"/>
<path d="M3370 3401 c-88 -27 -180 -106 -236 -203 -30 -50 -175 -314 -182
-330 -2 -5 10 -8 27 -8 27 0 35 7 63 57 57 100 225 254 263 240 19 -8 15 -16
-58 -149 -62 -115 -69 -151 -29 -156 29 -4 122 40 148 70 l19 22 -30 -18 c-16
-11 -39 -25 -50 -33 -20 -13 -55 -18 -55 -7 0 3 32 67 71 141 38 75 69 145 67
157 -4 29 -47 32 -97 6 -23 -11 -73 -51 -113 -88 l-72 -67 54 100 c74 140 119
204 154 226 37 23 74 24 100 4 18 -13 22 -13 43 7 13 12 23 25 23 30 0 10 -76
9 -110 -1z"/>
<path d="M4719 3396 c-111 -39 -179 -116 -293 -331 -99 -185 -104 -211 -43
-209 37 1 147 63 147 83 0 5 -23 -6 -51 -25 -52 -35 -79 -43 -79 -23 0 26 208
396 246 438 42 46 42 46 108 46 49 0 70 5 83 18 16 16 15 17 -32 17 -28 -1
-66 -7 -86 -14z"/>
<path d="M5821 3399 c-68 -20 -155 -91 -206 -167 -13 -20 -64 -111 -114 -202
-80 -147 -87 -165 -69 -168 34 -6 46 5 84 80 l37 73 29 -65 c50 -112 69 -120
155 -68 56 34 74 59 23 33 -16 -8 -35 -15 -43 -15 -28 0 -95 99 -82 120 3 6
16 10 28 10 12 0 47 13 77 28 61 31 103 82 98 122 -7 57 -111 26 -205 -62
l-56 -53 28 50 c139 243 166 271 247 261 45 -6 88 7 88 26 0 11 -78 8 -119 -3z
m-41 -231 c0 -51 -90 -122 -170 -134 l-45 -7 45 48 c74 78 170 130 170 93z"/>
<path d="M1730 3315 c-138 -18 -186 -42 -241 -118 -37 -51 -36 -58 1 -44 19 7
41 28 55 53 31 54 91 84 164 84 l53 0 -93 -102 c-52 -55 -130 -138 -174 -183
-114 -117 -189 -151 -236 -104 -19 19 -22 19 -45 4 -13 -8 -24 -19 -24 -24 0
-17 61 -34 103 -29 61 7 106 31 175 94 l60 54 81 0 c56 0 81 -4 81 -12 0 -6
-7 -38 -16 -70 -9 -32 -15 -60 -13 -63 2 -2 36 3 74 11 78 16 108 34 57 34
-21 0 -35 6 -39 17 -7 17 17 129 65 306 19 68 26 107 18 106 -6 -1 -54 -7
-106 -14z m1 -172 l-27 -108 -79 -3 -78 -3 103 111 c56 60 103 110 105 110 1
0 -9 -48 -24 -107z"/>
<path d="M3909 3316 c-74 -26 -133 -85 -145 -143 -4 -23 4 -41 45 -97 61 -83
65 -114 20 -157 -50 -47 -129 -51 -175 -8 -21 19 -21 19 -47 -2 -36 -27 -34
-35 9 -49 87 -29 231 18 286 94 39 54 34 90 -27 163 -31 38 -45 64 -45 85 0
60 95 114 159 92 21 -8 26 -16 26 -42 0 -42 17 -41 38 3 23 48 22 51 -14 64
-41 14 -85 13 -130 -3z"/>
<path d="M2507 3190 c-113 -44 -227 -164 -258 -273 -31 -108 101 -78 224 51
31 33 57 59 57 57 0 -2 -16 -35 -36 -72 -44 -84 -40 -108 18 -100 38 5 138 61
138 78 0 5 -21 -5 -47 -21 -50 -32 -73 -38 -73 -17 0 6 36 78 80 160 44 81 80
149 80 152 0 14 -140 2 -183 -15z m91 -24 c30 -30 -202 -266 -262 -266 -36 0
-11 76 56 172 58 82 100 111 156 105 24 -3 46 -8 50 -11z"/>
<path d="M2872 3189 c-87 -43 -107 -96 -67 -179 32 -67 29 -100 -10 -118 -37
-17 -66 -15 -90 8 -20 19 -21 19 -50 -5 l-30 -23 28 -11 c44 -17 87 -13 143
13 57 26 94 67 94 103 0 13 -11 46 -25 73 -14 27 -25 58 -25 69 0 52 111 83
118 34 5 -31 14 -29 36 8 15 26 16 33 5 40 -24 15 -83 10 -127 -12z"/>
<path d="M4203 3185 c-105 -53 -213 -188 -213 -267 0 -36 32 -68 69 -68 44 0
156 37 183 61 26 23 25 23 -66 -13 -85 -33 -125 -14 -112 54 6 33 9 36 52 42
93 12 178 66 209 132 38 80 -22 108 -122 59z m72 -15 c4 -6 -4 -32 -17 -58
-24 -49 -77 -85 -147 -98 -33 -7 -33 -6 -21 17 49 95 161 178 185 139z"/>
<path d="M4655 3175 c-27 -19 -53 -41 -57 -50 -12 -20 -8 -19 32 10 19 14 42
25 52 25 46 0 48 -96 4 -234 -13 -42 -22 -76 -19 -76 23 0 271 206 332 275 36
41 42 85 12 85 -36 0 -51 -12 -51 -40 0 -16 -14 -46 -35 -72 -33 -44 -166
-170 -172 -164 -2 1 6 38 17 81 24 94 25 143 4 173 -22 32 -62 28 -119 -13z"/>
<path d="M5257 3190 c-113 -44 -227 -164 -258 -273 -31 -108 101 -78 224 51
31 33 57 59 57 57 0 -2 -16 -35 -36 -72 -44 -84 -40 -108 18 -100 38 5 138 61
138 78 0 5 -21 -5 -47 -21 -50 -32 -73 -38 -73 -17 0 6 36 78 80 160 44 81 80
149 80 152 0 14 -140 2 -183 -15z m91 -24 c30 -30 -202 -266 -262 -266 -36 0
-11 76 56 172 58 82 100 111 156 105 24 -3 46 -8 50 -11z"/>
<path d="M5972 3195 c-43 -19 -92 -54 -92 -66 0 -5 19 4 42 21 37 27 78 40 78
24 0 -3 -32 -69 -72 -146 -57 -110 -70 -143 -61 -156 28 -46 101 -13 202 89
l71 73 -36 -67 c-19 -37 -34 -77 -32 -90 2 -18 9 -22 40 -21 36 1 138 56 138
75 0 5 -16 -3 -36 -16 -41 -28 -73 -40 -82 -31 -6 6 79 176 140 279 l27 47
-34 0 c-33 0 -37 -4 -69 -68 -50 -99 -222 -258 -257 -237 -6 4 17 58 56 131
38 72 65 135 63 147 -4 28 -40 32 -86 12z"/>
<path d="M6414 3187 c-49 -27 -78 -48 -87 -64 -4 -7 15 3 44 22 58 40 84 45
74 16 -5 -17 -85 -169 -138 -263 -24 -44 -22 -48 15 -41 21 4 36 19 59 59 37
66 111 147 182 203 100 76 101 54 6 -126 -39 -74 -69 -136 -68 -138 2 -2 17
-1 32 2 21 4 34 18 54 57 40 80 209 246 250 246 23 0 14 -27 -52 -153 -74
-141 -76 -162 -13 -154 38 5 138 61 138 78 0 5 -21 -5 -47 -21 -49 -31 -73
-38 -73 -19 0 5 30 66 66 134 70 134 79 177 37 183 -39 6 -96 -29 -171 -105
l-72 -73 30 61 c36 70 37 112 3 117 -34 5 -82 -25 -162 -102 l-73 -71 31 63
c18 35 31 73 29 85 -4 30 -43 32 -94 4z"/>
<path d="M7197 3190 c-113 -44 -227 -164 -258 -273 -31 -108 101 -78 224 51
31 33 57 59 57 57 0 -2 -16 -35 -36 -72 -44 -84 -40 -108 18 -100 38 5 138 61
138 78 0 5 -21 -5 -47 -21 -50 -32 -73 -38 -73 -17 0 6 36 78 80 160 44 81 80
149 80 152 0 14 -140 2 -183 -15z m91 -24 c30 -30 -202 -266 -262 -266 -36 0
-11 76 56 172 58 82 100 111 156 105 24 -3 46 -8 50 -11z"/>
<path d="M7486 3177 c-33 -18 -62 -39 -64 -46 -2 -7 15 1 38 18 44 32 80 40
80 19 0 -7 -35 -78 -79 -158 -69 -128 -76 -145 -59 -148 33 -6 46 5 74 60 47
92 203 238 256 238 11 0 18 7 18 20 0 11 -2 20 -5 20 -20 0 -80 -43 -139 -99
l-68 -66 31 60 c58 110 25 143 -83 82z"/>
</g>
</svg>
