<?xml version="1.0" standalone="no"?>
<!DOCTYPE svg PUBLIC "-//W3C//DTD SVG 20010904//EN"
 "http://www.w3.org/TR/2001/REC-SVG-20010904/DTD/svg10.dtd">
<svg version="1.0" xmlns="http://www.w3.org/2000/svg"
 width="905.000000pt" height="277.000000pt" viewBox="0 0 905.000000 277.000000"
 preserveAspectRatio="xMidYMid meet">

<g transform="translate(0.000000,277.000000) scale(0.100000,-0.100000)"
fill="#000000" stroke="none">
<path d="M1472 1821 c-78 -23 -178 -83 -174 -106 2 -9 -2 -23 -9 -31 -20 -25
-94 -80 -85 -64 5 8 -2 4 -15 -10 -65 -69 -88 -145 -90 -286 -1 -134 19 -209
82 -303 64 -96 178 -175 295 -205 79 -20 219 -20 298 0 177 46 325 192 372
368 18 66 18 207 -1 275 -48 182 -207 332 -393 370 -78 16 -208 12 -280 -8z
m286 -222 c110 -55 167 -151 166 -284 0 -95 -21 -151 -83 -218 -55 -60 -124
-89 -210 -89 -116 1 -195 43 -255 135 -88 135 -66 314 50 416 58 51 111 69
200 70 60 1 80 -4 132 -30z m-534 -75 c19 -7 21 -30 4 -38 -7 -4 -4 -5 8 -2
30 5 59 -51 50 -98 -4 -20 -11 -36 -16 -36 -13 0 -48 80 -53 121 -2 20 -8 42
-11 48 -8 13 -4 14 18 5z m-58 -70 c-3 -9 1 -25 9 -37 17 -25 20 -47 5 -47 -5
0 -10 10 -10 23 0 18 -2 19 -11 7 -9 -13 -10 -13 -6 0 2 8 1 25 -4 36 -8 22
-3 34 14 34 5 0 6 -7 3 -16z m12 -103 c3 -8 -1 -12 -9 -9 -7 2 -15 10 -17 17
-3 8 1 12 9 9 7 -2 15 -10 17 -17z m-34 -66 c3 -8 1 -15 -4 -15 -6 0 -10 7
-10 15 0 8 2 15 4 15 2 0 6 -7 10 -15z m176 -109 c0 -3 -4 -8 -10 -11 -5 -3
-10 -1 -10 4 0 6 5 11 10 11 6 0 10 -2 10 -4z"/>
<path d="M5625 1821 c-98 -28 -176 -72 -240 -136 -201 -200 -205 -514 -11
-723 104 -111 262 -170 429 -160 236 15 414 155 488 383 7 22 13 81 13 130 0
305 -226 525 -539 524 -45 0 -106 -8 -140 -18z m265 -212 c63 -28 117 -84 151
-154 24 -50 29 -73 29 -139 0 -66 -5 -88 -30 -141 -17 -35 -45 -76 -63 -91
-159 -135 -383 -90 -483 96 -15 28 -19 56 -19 140 0 99 2 108 31 160 33 58
104 121 158 138 57 18 176 14 226 -9z"/>
<path d="M8325 1830 c-11 -5 -18 -9 -15 -10 3 -1 12 -3 20 -5 8 -2 26 -7 39
-11 19 -6 22 -4 19 12 -4 21 -32 28 -63 14z"/>
<path d="M6608 1822 l-108 -3 0 -499 0 -500 365 0 366 0 -3 98 -3 97 -247 3
-248 2 0 400 c0 219 -3 400 -7 402 -5 2 -56 2 -115 0z"/>
<path d="M8417 1823 c-21 -20 -3 -51 53 -91 33 -24 60 -48 60 -53 0 -15 -8
-11 -65 31 l-55 41 0 -58 0 -58 48 -16 c26 -9 54 -19 63 -23 15 -6 17 5 18
107 l1 114 -31 7 c-41 8 -84 8 -92 -1z"/>
<path d="M172 1318 l3 -503 110 0 110 0 3 153 3 152 119 0 c180 0 266 26 348
103 47 45 84 120 76 154 -5 20 -4 24 6 18 10 -6 12 -2 7 15 -3 12 -1 33 4 47
5 14 7 40 4 57 -6 30 -8 31 -55 31 -54 0 -58 2 -63 32 -1 12 -7 27 -13 35 -5
7 -21 36 -33 65 -13 29 -30 54 -37 57 -8 3 -14 12 -14 21 0 8 -6 15 -12 16 -7
0 -4 4 7 8 17 7 14 10 -20 22 -27 9 -121 14 -298 16 l-257 4 2 -503z m499 281
c42 -21 78 -79 79 -125 0 -32 -25 -86 -52 -111 -37 -35 -73 -43 -189 -43
l-109 0 0 150 0 150 115 0 c97 0 122 -3 156 -21z"/>
<path d="M2360 1322 c0 -558 -7 -512 73 -512 23 0 66 3 94 6 l53 7 2 156 3
156 85 0 85 0 107 -160 c65 -97 113 -160 122 -159 9 0 67 1 130 2 l115 2 -120
176 c-66 97 -119 177 -117 179 2 1 18 10 36 19 53 27 111 86 140 140 24 46 27
61 27 156 0 90 -4 111 -23 148 -36 68 -87 117 -154 148 l-63 29 -297 3 -298 3
0 -499z m537 279 c50 -23 73 -63 73 -126 0 -86 -48 -126 -166 -140 l-62 -7 5
-37 c4 -27 0 -42 -12 -55 -25 -25 -43 -4 -47 52 l-3 47 -50 0 -50 0 -3 143 -3
142 138 0 c114 0 145 -4 180 -19z"/>
<path d="M3330 1720 l0 -100 150 0 150 0 0 -84 c0 -47 5 -88 10 -91 6 -3 10
-1 10 5 0 18 121 161 229 273 l95 97 -322 0 -322 0 0 -100z"/>
<path d="M4686 1812 c5 -5 34 -28 64 -52 30 -25 78 -66 105 -92 l50 -48 98 0
97 0 0 100 0 100 -212 0 c-117 0 -208 -4 -202 -8z"/>
<path d="M7408 1423 c-1 -219 -2 -444 -3 -500 l-2 -103 111 0 111 0 0 500 0
500 -107 0 -108 0 -2 -397z"/>
<path d="M8123 1780 c-43 -21 -89 -50 -101 -63 -21 -22 -21 -29 -14 -113 l7
-89 50 -1 c45 -2 54 2 93 37 23 22 53 45 67 51 24 11 25 14 25 115 0 102 0
103 -24 103 -13 0 -59 -18 -103 -40z"/>
<path d="M8270 1719 c0 -76 3 -100 13 -97 8 3 13 35 15 101 2 82 0 97 -13 97
-12 0 -15 -17 -15 -101z"/>
<path d="M4341 1784 c0 -11 3 -14 6 -6 3 7 2 16 -1 19 -3 4 -6 -2 -5 -13z"/>
<path d="M8577 1793 c-4 -3 -7 -38 -7 -78 0 -66 2 -73 29 -99 24 -23 35 -27
60 -21 17 3 33 10 35 13 2 4 6 34 7 67 l3 60 -54 33 c-57 34 -63 36 -73 25z"/>
<path d="M4120 1718 c-18 -40 -35 -79 -37 -85 -4 -9 7 -13 36 -13 l41 0 0 85
c0 47 -2 85 -4 85 -2 0 -18 -33 -36 -72z"/>
<path d="M8336 1775 c-3 -9 -6 -45 -6 -79 l0 -63 30 5 31 4 -3 61 c-2 48 -7
62 -24 74 -19 12 -22 12 -28 -2z"/>
<path d="M4370 1753 c0 -5 11 -53 25 -108 24 -97 36 -278 15 -230 -5 11 -9 16
-9 10 -1 -5 -6 -3 -11 5 -8 12 -11 13 -19 1 -5 -8 -11 -9 -15 -3 -3 6 -1 12 6
14 13 5 2 28 -13 28 -5 0 -9 -128 -9 -324 l0 -325 106 -3 c58 -2 107 -1 108 2
1 3 -1 68 -4 145 -4 77 -7 127 -8 112 -3 -36 -41 -127 -54 -127 -6 0 -7 11 -4
26 4 15 10 40 13 58 3 17 9 36 13 41 4 6 10 27 14 48 4 20 11 37 16 37 6 0 10
12 10 26 l0 27 245 -8 245 -7 0 105 0 106 -172 -6 c-95 -3 -203 -3 -240 1
l-68 8 0 90 0 91 -62 61 c-94 91 -128 118 -128 99z m283 -383 c3 -11 2 -20 -3
-20 -4 0 -10 9 -13 20 -3 11 -2 20 3 20 4 0 10 -9 13 -20z m80 13 c-13 -2 -35
-2 -50 0 -16 2 -5 4 22 4 28 0 40 -2 28 -4z"/>
<path d="M8730 1676 c0 -19 -3 -41 -6 -50 -5 -13 2 -16 32 -17 l39 -1 -36 -10
c-32 -8 -38 -14 -41 -43 l-4 -34 40 5 c22 2 41 6 42 7 1 1 4 21 7 45 4 35 0
49 -24 81 -39 55 -49 58 -49 17z"/>
<path d="M7952 1646 c-38 -44 -79 -121 -99 -190 -23 -77 -20 -220 6 -299 40
-120 136 -238 233 -288 l37 -19 -23 48 c-45 88 -115 260 -121 296 -6 29 -4 37
10 43 17 6 17 7 0 19 -17 12 -17 14 -1 20 14 5 15 16 10 68 -7 76 -11 119 -13
129 0 4 -16 8 -33 8 -31 2 -31 2 -6 6 34 5 40 24 36 122 l-3 74 -33 -37z"/>
<path d="M8560 1596 c0 -9 5 -16 10 -16 6 0 10 4 10 9 0 6 -4 13 -10 16 -5 3
-10 -1 -10 -9z"/>
<path d="M8820 1565 c0 -38 0 -38 24 -29 14 5 14 9 0 35 -19 38 -24 37 -24 -6z"/>
<path d="M8654 1561 c12 -13 14 -21 6 -26 -6 -4 -20 2 -31 14 -22 23 -65 30
-53 9 20 -36 39 -48 75 -48 43 0 54 11 45 46 -5 18 -13 24 -33 24 -25 0 -25
-1 -9 -19z"/>
<path d="M8810 1450 c0 -52 2 -60 19 -60 11 0 32 -15 47 -32 l27 -33 -6 65
c-9 96 -20 120 -57 120 l-30 0 0 -60z"/>
<path d="M8055 1493 c-11 -3 -24 -9 -30 -14 -12 -12 -6 -180 7 -197 20 -24 38
7 38 67 0 34 8 73 20 100 11 24 20 45 20 47 0 5 -28 3 -55 -3z"/>
<path d="M8745 1493 c-26 -7 -35 -21 -35 -60 0 -28 4 -34 33 -41 35 -9 37 -6
50 71 6 39 1 42 -48 30z"/>
<path d="M8668 1482 c-32 -4 -32 -4 -16 -49 15 -42 31 -37 39 13 4 21 6 39 5
39 0 0 -13 -1 -28 -3z"/>
<path d="M3636 1350 c-4 -47 -6 -186 -4 -310 l3 -225 110 0 110 0 3 180 c3
192 -6 415 -17 397 -3 -5 -18 -8 -33 -5 -15 3 -25 9 -22 14 3 5 1 9 -5 9 -5 0
-13 -5 -16 -10 -5 -8 -11 -7 -20 0 -10 8 -19 8 -34 1 -31 -17 -51 -13 -60 12
-6 16 -10 0 -15 -63z"/>
<path d="M8860 1340 c0 -5 5 -10 10 -10 6 0 10 5 10 10 0 6 -4 10 -10 10 -5 0
-10 -4 -10 -10z"/>
<path d="M8636 1081 c-20 -22 -12 -30 25 -22 24 6 25 7 9 24 -16 16 -18 16
-34 -2z"/>
<path d="M8650 1020 c0 -5 5 -10 10 -10 6 0 10 5 10 10 0 6 -4 10 -10 10 -5 0
-10 -4 -10 -10z"/>
<path d="M8460 980 c-9 -6 -10 -10 -3 -10 6 0 19 -3 27 -6 12 -5 15 -2 10 10
-7 18 -13 20 -34 6z"/>
<path d="M8540 860 c0 -5 5 -10 10 -10 6 0 10 5 10 10 0 6 -4 10 -10 10 -5 0
-10 -4 -10 -10z"/>
</g>
</svg>
